<svg width="244" height="45" viewBox="0 0 244 45" fill="none" xmlns="http://www.w3.org/2000/svg">
<g id="B7 &#226;&#128;&#162; Burger">
<path d="M13.928 34.512C12.712 34.512 11.288 34.464 9.65605 34.368C5.91205 34.208 3.12805 34.128 1.30405 34.128C0.600047 33.264 0.248047 32.256 0.248047 31.104C1.33605 31.104 2.10405 30.928 2.55205 30.576C3.00005 30.192 3.22405 29.552 3.22405 28.656V6.096C3.22405 5.2 3.00005 4.576 2.55205 4.224C2.10405 3.84 1.33605 3.648 0.248047 3.648C0.248047 2.496 0.600047 1.488 1.30405 0.624001C3.09605 0.624001 5.86405 0.576 9.60805 0.48C11.272 0.416 12.408 0.384001 13.016 0.384001C18.04 0.384001 21.592 1.168 23.672 2.736C25.752 4.304 26.792 6.208 26.792 8.448C26.792 10.304 26.312 11.872 25.352 13.152C24.424 14.4 22.872 15.472 20.696 16.368C23.544 16.944 25.576 17.856 26.792 19.104C28.008 20.352 28.616 22.224 28.616 24.72C28.616 31.248 23.72 34.512 13.928 34.512ZM12.584 15.216C16.872 15.216 19.016 13.328 19.016 9.552C19.016 7.76 18.52 6.368 17.528 5.376C16.568 4.384 15.096 3.888 13.112 3.888C12.216 3.888 11.56 3.952 11.144 4.08V15.12C11.72 15.184 12.2 15.216 12.584 15.216ZM13.16 31.008C17.64 31.008 19.88 29.072 19.88 25.2C19.88 22.992 19.32 21.36 18.2 20.304C17.08 19.216 15.256 18.672 12.728 18.672L11.144 18.72V30.864C12.008 30.96 12.68 31.008 13.16 31.008Z" fill="white"/>
<path d="M55.391 2.352C51.679 7.056 49.183 11.52 47.903 15.744C46.655 19.968 46.031 24.192 46.031 28.416V31.104C46.031 32.128 45.647 32.976 44.879 33.648C44.111 34.288 42.623 34.608 40.415 34.608C38.815 34.608 37.487 34.368 36.431 33.888C36.751 29.056 37.887 24.432 39.839 20.016C41.823 15.6 44.911 10.832 49.103 5.712C46.415 6.512 43.647 6.912 40.799 6.912C38.943 6.912 37.599 7.184 36.767 7.728C35.967 8.272 35.391 9.264 35.039 10.704H32.351C31.775 10.16 31.295 9.472 30.911 8.64C30.527 7.776 30.335 6.768 30.335 5.616C30.335 3.92 30.831 2.592 31.823 1.632C32.815 0.64 34.351 0.144001 36.431 0.144001C37.039 0.144001 37.919 0.240001 39.071 0.432C40.2551 0.592 41.007 0.688 41.327 0.719999C45.007 1.264 47.647 1.536 49.247 1.536C50.303 1.536 51.071 1.456 51.551 1.296C52.031 1.104 52.735 0.671999 53.663 0L55.391 2.352Z" fill="white"/>
<path d="M81.3793 18.144C81.3793 20.384 80.6913 22.192 79.3153 23.568C77.9393 24.912 76.1153 25.584 73.8433 25.584C71.5393 25.584 69.6993 24.912 68.3233 23.568C66.9793 22.192 66.3073 20.384 66.3073 18.144C66.3073 15.904 66.9793 14.112 68.3233 12.768C69.6993 11.424 71.5393 10.752 73.8433 10.752C76.1153 10.752 77.9393 11.424 79.3153 12.768C80.6913 14.112 81.3793 15.904 81.3793 18.144Z" fill="#FE6A0F"/>
<path d="M107.209 34.512C105.993 34.512 104.569 34.464 102.937 34.368C99.1933 34.208 96.4093 34.128 94.5853 34.128C93.8813 33.264 93.5293 32.256 93.5293 31.104C94.6173 31.104 95.3853 30.928 95.8333 30.576C96.2813 30.192 96.5053 29.552 96.5053 28.656V6.096C96.5053 5.2 96.2813 4.576 95.8333 4.224C95.3853 3.84 94.6173 3.648 93.5293 3.648C93.5293 2.496 93.8813 1.488 94.5853 0.624001C96.3773 0.624001 99.1453 0.576 102.889 0.48C104.553 0.416 105.689 0.384001 106.297 0.384001C111.321 0.384001 114.873 1.168 116.953 2.736C119.033 4.304 120.073 6.208 120.073 8.448C120.073 10.304 119.593 11.872 118.633 13.152C117.705 14.4 116.153 15.472 113.977 16.368C116.825 16.944 118.857 17.856 120.073 19.104C121.289 20.352 121.897 22.224 121.897 24.72C121.897 31.248 117.001 34.512 107.209 34.512ZM105.865 15.216C110.153 15.216 112.297 13.328 112.297 9.552C112.297 7.76 111.801 6.368 110.809 5.376C109.849 4.384 108.377 3.888 106.393 3.888C105.497 3.888 104.841 3.952 104.425 4.08V15.12C105.001 15.184 105.481 15.216 105.865 15.216ZM106.441 31.008C110.921 31.008 113.161 29.072 113.161 25.2C113.161 22.992 112.601 21.36 111.481 20.304C110.361 19.216 108.537 18.672 106.009 18.672L104.425 18.72V30.864C105.289 30.96 105.961 31.008 106.441 31.008Z" fill="white"/>
<path d="M147.232 28.512C147.232 29.28 147.424 29.92 147.808 30.432C148.224 30.944 148.8 31.232 149.536 31.296V32.64C149.024 33.216 148.224 33.664 147.136 33.984C146.08 34.304 145.008 34.464 143.92 34.464C142.832 34.464 141.904 34.176 141.136 33.6C140.368 33.024 139.856 32.224 139.6 31.2C138.064 33.376 135.872 34.464 133.024 34.464C130.784 34.464 129.04 33.776 127.792 32.4C126.544 31.024 125.92 29.168 125.92 26.832V13.632C125.92 13.088 125.712 12.704 125.296 12.48C124.912 12.256 124.336 12.144 123.568 12.144V10.032C124.048 9.648 124.96 9.264 126.304 8.88C127.68 8.496 129.136 8.304 130.672 8.304C131.568 8.304 132.224 8.368 132.64 8.496C133.056 8.592 133.344 8.816 133.504 9.168C133.664 9.52 133.744 10.08 133.744 10.848V26.976C133.744 27.968 133.904 28.72 134.224 29.232C134.576 29.712 135.136 29.952 135.904 29.952C136.544 29.952 137.168 29.76 137.776 29.376C138.416 28.96 138.96 28.464 139.408 27.888V13.632C139.408 12.64 138.512 12.144 136.72 12.144V10.032C137.232 9.616 138.16 9.232 139.504 8.88C140.88 8.496 142.384 8.304 144.016 8.304C145.328 8.304 146.192 8.464 146.608 8.784C147.024 9.072 147.232 9.76 147.232 10.848V28.512Z" fill="white"/>
<path d="M167.789 8.064C169.229 8.064 170.285 8.432 170.957 9.168C171.629 9.904 171.965 10.912 171.965 12.192C171.965 13.568 171.597 14.688 170.861 15.552C170.157 16.416 169.197 16.848 167.981 16.848C166.925 16.848 166.061 16.544 165.389 15.936C164.749 15.328 164.429 14.608 164.429 13.776C164.429 13.264 164.477 12.864 164.573 12.576C163.421 12.864 162.445 13.36 161.645 14.064V28.464C161.645 29.264 161.757 29.872 161.981 30.288C162.205 30.704 162.637 31.024 163.277 31.248C163.949 31.44 164.941 31.536 166.253 31.536C166.253 32.112 166.189 32.608 166.061 33.024C165.933 33.408 165.693 33.776 165.341 34.128H152.525C151.789 33.392 151.421 32.528 151.421 31.536C152.349 31.536 153.005 31.344 153.389 30.96C153.805 30.544 154.013 29.856 154.013 28.896V15.024C154.013 14.16 153.773 13.552 153.293 13.2C152.845 12.848 152.029 12.672 150.845 12.672V10.512C151.901 9.904 153.293 9.376 155.021 8.928C156.781 8.448 158.141 8.208 159.101 8.208C159.869 8.208 160.413 8.48 160.733 9.024C161.053 9.568 161.213 10.656 161.213 12.288C161.789 11.2 162.701 10.224 163.949 9.36C165.197 8.496 166.477 8.064 167.789 8.064Z" fill="white"/>
<path d="M184.694 28.416C188.822 28.704 191.894 29.456 193.91 30.672C195.958 31.856 196.982 33.616 196.982 35.952C196.982 37.584 196.374 39.072 195.158 40.416C193.942 41.792 192.326 42.864 190.31 43.632C188.326 44.432 186.198 44.832 183.926 44.832C180.118 44.832 177.27 44.144 175.382 42.768C173.494 41.424 172.55 39.616 172.55 37.344C172.55 36.16 172.934 35.088 173.702 34.128C174.502 33.136 175.638 32.4 177.11 31.92C176.47 31.472 176.038 30.944 175.814 30.336C175.622 29.728 175.526 28.976 175.526 28.08C175.526 27.504 175.75 26.928 176.198 26.352C176.646 25.744 177.27 25.296 178.07 25.008C176.566 24.208 175.382 23.104 174.518 21.696C173.686 20.288 173.27 18.768 173.27 17.136C173.27 15.472 173.67 13.984 174.47 12.672C175.302 11.328 176.502 10.272 178.07 9.504C179.67 8.704 181.606 8.304 183.878 8.304H183.926C185.078 8.304 186.07 8.384 186.902 8.544C189.91 8.544 191.974 8.512 193.094 8.448C194.246 8.352 195.35 8.224 196.406 8.064C196.726 8.064 196.966 8.288 197.126 8.736C197.318 9.152 197.414 9.6 197.414 10.08C197.414 11.52 196.79 12.24 195.542 12.24C195.254 12.24 194.374 11.952 192.902 11.376C192.646 11.248 192.262 11.088 191.75 10.896C192.806 11.76 193.622 12.752 194.198 13.872C194.774 14.96 195.062 16.016 195.062 17.04C195.062 20.016 194.038 22.304 191.99 23.904C189.974 25.472 187.142 26.256 183.494 26.256C182.598 26.256 181.59 26.144 180.47 25.92V26.064C180.47 26.832 180.774 27.392 181.382 27.744C181.99 28.064 183.094 28.288 184.694 28.416ZM184.31 11.472C183.286 11.472 182.55 12 182.102 13.056C181.686 14.112 181.478 15.648 181.478 17.664C181.478 21.28 182.422 23.088 184.31 23.088C185.334 23.088 186.07 22.544 186.518 21.456C186.966 20.368 187.19 18.704 187.19 16.464C187.19 14.704 186.95 13.44 186.47 12.672C185.99 11.872 185.27 11.472 184.31 11.472ZM185.51 40.896C186.982 40.896 188.07 40.544 188.774 39.84C189.478 39.136 189.83 38.256 189.83 37.2C189.83 36.24 189.238 35.52 188.054 35.04C186.902 34.592 185.078 34.16 182.582 33.744L180.422 33.312C180.006 34.016 179.798 34.944 179.798 36.096C179.798 37.568 180.246 38.736 181.142 39.6C182.038 40.464 183.494 40.896 185.51 40.896Z" fill="white"/>
<path d="M212.501 29.232C214.517 29.232 216.389 28.592 218.117 27.312C218.373 27.568 218.597 27.952 218.789 28.464C218.981 28.976 219.077 29.424 219.077 29.808C219.077 30.384 218.693 31.056 217.925 31.824C217.157 32.56 216.085 33.2 214.709 33.744C213.365 34.288 211.845 34.56 210.149 34.56C207.781 34.56 205.701 34.048 203.909 33.024C202.149 32 200.789 30.512 199.829 28.56C198.869 26.608 198.389 24.304 198.389 21.648C198.389 18.928 198.901 16.544 199.925 14.496C200.981 12.448 202.421 10.88 204.245 9.792C206.069 8.672 208.133 8.112 210.437 8.112C213.349 8.112 215.669 8.96 217.397 10.656C219.125 12.352 219.989 14.704 219.989 17.712C219.989 19.12 219.765 20.24 219.317 21.072C218.869 21.872 218.069 22.272 216.917 22.272H206.549C206.741 26.912 208.725 29.232 212.501 29.232ZM210.149 11.424C209.157 11.424 208.325 11.984 207.653 13.104C206.981 14.192 206.613 16.032 206.549 18.624H211.397C211.909 18.624 212.245 18.448 212.405 18.096C212.565 17.744 212.645 17.2 212.645 16.464C212.645 14.576 212.421 13.264 211.973 12.528C211.525 11.792 210.917 11.424 210.149 11.424Z" fill="white"/>
<path d="M238.898 8.064C240.338 8.064 241.394 8.432 242.066 9.168C242.738 9.904 243.074 10.912 243.074 12.192C243.074 13.568 242.706 14.688 241.97 15.552C241.266 16.416 240.306 16.848 239.09 16.848C238.034 16.848 237.17 16.544 236.498 15.936C235.858 15.328 235.538 14.608 235.538 13.776C235.538 13.264 235.586 12.864 235.682 12.576C234.53 12.864 233.554 13.36 232.754 14.064V28.464C232.754 29.264 232.866 29.872 233.09 30.288C233.314 30.704 233.746 31.024 234.386 31.248C235.058 31.44 236.05 31.536 237.362 31.536C237.362 32.112 237.298 32.608 237.17 33.024C237.042 33.408 236.802 33.776 236.45 34.128H223.634C222.898 33.392 222.53 32.528 222.53 31.536C223.458 31.536 224.114 31.344 224.498 30.96C224.914 30.544 225.122 29.856 225.122 28.896V15.024C225.122 14.16 224.882 13.552 224.402 13.2C223.954 12.848 223.138 12.672 221.954 12.672V10.512C223.01 9.904 224.402 9.376 226.13 8.928C227.89 8.448 229.25 8.208 230.21 8.208C230.978 8.208 231.522 8.48 231.842 9.024C232.162 9.568 232.322 10.656 232.322 12.288C232.898 11.2 233.81 10.224 235.058 9.36C236.306 8.496 237.586 8.064 238.898 8.064Z" fill="white"/>
</g>
</svg>
