<svg width="151" height="39" viewBox="0 0 151 39" fill="none" xmlns="http://www.w3.org/2000/svg">
<g id=" Burger">
<path d="M13.1612 15.4846C13.1612 17.3962 12.5747 18.9392 11.4017 20.1135C10.2288 21.2605 8.67387 21.834 6.73708 21.834C4.77301 21.834 3.20448 21.2605 2.03149 20.1135C0.885787 18.9392 0.312927 17.3962 0.312927 15.4846C0.312927 13.5729 0.885787 12.0436 2.03149 10.8966C3.20448 9.74955 4.77301 9.17605 6.73708 9.17605C8.67387 9.17605 10.2288 9.74955 11.4017 10.8966C12.5747 12.0436 13.1612 13.5729 13.1612 15.4846Z" fill="#FE6A0F"/>
<path d="M35.1803 29.4534C34.1437 29.4534 32.9298 29.4124 31.5386 29.3305C28.347 29.1939 25.9737 29.1257 24.4188 29.1257C23.8187 28.3883 23.5186 27.5281 23.5186 26.5449C24.4461 26.5449 25.1008 26.3947 25.4827 26.0943C25.8646 25.7666 26.0555 25.2204 26.0555 24.4557V5.20251C26.0555 4.43784 25.8646 3.90531 25.4827 3.6049C25.1008 3.27719 24.4461 3.11333 23.5186 3.11333C23.5186 2.13019 23.8187 1.26994 24.4188 0.53258C25.9464 0.53258 28.306 0.491616 31.4977 0.409687C32.9161 0.355068 33.8846 0.327759 34.4029 0.327759C38.6856 0.327759 41.7136 0.996842 43.4867 2.33501C45.2598 3.67318 46.1464 5.29809 46.1464 7.20976C46.1464 8.79371 45.7372 10.1319 44.9188 11.2243C44.1277 12.2893 42.8047 13.2042 40.9497 13.9689C43.3775 14.4604 45.1098 15.2388 46.1464 16.3038C47.1829 17.3689 47.7012 18.9665 47.7012 21.0967C47.7012 26.6678 43.5276 29.4534 35.1803 29.4534ZM34.0346 12.9857C37.6899 12.9857 39.5176 11.3745 39.5176 8.15194C39.5176 6.62261 39.0948 5.43464 38.2491 4.58805C37.4308 3.74145 36.176 3.31815 34.4847 3.31815C33.7209 3.31815 33.1616 3.37277 32.807 3.48201V12.9038C33.298 12.9584 33.7072 12.9857 34.0346 12.9857ZM34.5256 26.463C38.3446 26.463 40.2541 24.8108 40.2541 21.5063C40.2541 19.6219 39.7768 18.2292 38.822 17.3279C37.8672 16.3994 36.3124 15.9352 34.1573 15.9352L32.807 15.9761V26.3401C33.5436 26.422 34.1164 26.463 34.5256 26.463Z" fill="white"/>
<path d="M69.2983 24.3328C69.2983 24.9883 69.462 25.5345 69.7893 25.9714C70.144 26.4084 70.635 26.6541 71.2624 26.7088V27.8558C70.8259 28.3473 70.144 28.7297 69.2165 29.0028C68.3163 29.2759 67.4025 29.4124 66.475 29.4124C65.5475 29.4124 64.7564 29.1666 64.1017 28.6751C63.447 28.1835 63.0106 27.5007 62.7923 26.6268C61.483 28.4839 59.6144 29.4124 57.1866 29.4124C55.2771 29.4124 53.7904 28.8253 52.7265 27.651C51.6626 26.4766 51.1307 24.8927 51.1307 22.8991V11.6339C51.1307 11.1696 50.9534 10.8419 50.5987 10.6508C50.2714 10.4596 49.7804 10.364 49.1257 10.364V8.56159C49.5349 8.23387 50.3123 7.90616 51.458 7.57844C52.631 7.25073 53.8722 7.08687 55.1816 7.08687C55.9454 7.08687 56.5046 7.14149 56.8592 7.25073C57.2139 7.33265 57.4593 7.52382 57.5957 7.82423C57.7321 8.12463 57.8003 8.60255 57.8003 9.25798V23.022C57.8003 23.8686 57.9367 24.5103 58.2095 24.9473C58.5096 25.3569 58.987 25.5618 59.6417 25.5618C60.1872 25.5618 60.7192 25.3979 61.2374 25.0702C61.783 24.7152 62.2468 24.2919 62.6287 23.8003V11.6339C62.6287 10.7873 61.8649 10.364 60.3373 10.364V8.56159C60.7737 8.20656 61.5648 7.87884 62.7105 7.57844C63.8835 7.25073 65.1656 7.08687 66.5568 7.08687C67.6752 7.08687 68.4118 7.22342 68.7664 7.49651C69.121 7.7423 69.2983 8.32945 69.2983 9.25798V24.3328Z" fill="white"/>
<path d="M86.8222 6.88205C88.0497 6.88205 88.9499 7.19611 89.5228 7.82423C90.0956 8.45235 90.382 9.3126 90.382 10.405C90.382 11.5793 90.0683 12.5351 89.4409 13.2725C88.8408 14.0098 88.0224 14.3785 86.9858 14.3785C86.0856 14.3785 85.3491 14.1191 84.7762 13.6002C84.2307 13.0813 83.9579 12.4668 83.9579 11.7568C83.9579 11.3198 83.9988 10.9785 84.0806 10.7327C83.0986 10.9785 82.2666 11.4018 81.5846 12.0026V24.2919C81.5846 24.9746 81.6801 25.4935 81.8711 25.8485C82.062 26.2035 82.4303 26.4766 82.9759 26.6678C83.5487 26.8317 84.3944 26.9136 85.5128 26.9136C85.5128 27.4052 85.4582 27.8285 85.3491 28.1835C85.24 28.5112 85.0354 28.8253 84.7353 29.1257H73.8102C73.1828 28.4975 72.8691 27.7602 72.8691 26.9136C73.6602 26.9136 74.2194 26.7497 74.5467 26.422C74.9013 26.067 75.0787 25.4798 75.0787 24.6606V12.8219C75.0787 12.0845 74.8741 11.5656 74.4649 11.2652C74.083 10.9648 73.3874 10.8146 72.3781 10.8146V8.97123C73.2783 8.45235 74.4649 8.00174 75.9379 7.6194C77.4383 7.20976 78.5976 7.00494 79.416 7.00494C80.0707 7.00494 80.5344 7.23707 80.8072 7.70133C81.08 8.1656 81.2164 9.09412 81.2164 10.4869C81.7074 9.55838 82.4848 8.72544 83.5487 7.98808C84.6126 7.25073 85.7037 6.88205 86.8222 6.88205Z" fill="white"/>
<path d="M101.233 24.2509C104.752 24.4967 107.371 25.1385 109.09 26.1762C110.835 27.1867 111.708 28.6887 111.708 30.6823C111.708 32.0751 111.19 33.345 110.153 34.492C109.117 35.6663 107.739 36.5812 106.021 37.2366C104.329 37.9193 102.515 38.2607 100.579 38.2607C97.3325 38.2607 94.9047 37.6736 93.2952 36.4992C91.6858 35.3522 90.881 33.8093 90.881 31.8703C90.881 30.8598 91.2084 29.945 91.8631 29.1257C92.545 28.2791 93.5134 27.651 94.7682 27.2413C94.2227 26.859 93.8544 26.4084 93.6635 25.8895C93.4998 25.3706 93.418 24.7288 93.418 23.9642C93.418 23.4726 93.6089 22.981 93.9908 22.4894C94.3727 21.9706 94.9047 21.5882 95.5866 21.3424C94.3045 20.6597 93.2952 19.7175 92.5587 18.5159C91.8494 17.3143 91.4948 16.0171 91.4948 14.6243C91.4948 13.2042 91.8358 11.9343 92.5178 10.8146C93.227 9.66762 94.25 8.76641 95.5866 8.11098C96.9506 7.42824 98.6009 7.08687 100.538 7.08687H100.579C101.561 7.08687 102.406 7.15514 103.116 7.29169C105.68 7.29169 107.439 7.26438 108.394 7.20976C109.376 7.12783 110.317 7.01859 111.217 6.88205C111.49 6.88205 111.695 7.07321 111.831 7.45555C111.995 7.81057 112.077 8.19291 112.077 8.60255C112.077 9.83148 111.545 10.4459 110.481 10.4459C110.235 10.4459 109.485 10.2002 108.23 9.70859C108.012 9.59935 107.685 9.4628 107.248 9.29894C108.148 10.0363 108.844 10.8829 109.335 11.8387C109.826 12.7673 110.072 13.6685 110.072 14.5424C110.072 17.0822 109.199 19.0348 107.453 20.4003C105.734 21.7384 103.32 22.4075 100.21 22.4075C99.4466 22.4075 98.5873 22.3119 97.6325 22.1208V22.2437C97.6325 22.8991 97.8917 23.377 98.41 23.6774C98.9283 23.9505 99.8694 24.1417 101.233 24.2509ZM100.906 9.79051C100.033 9.79051 99.4056 10.2411 99.0237 11.1423C98.6691 12.0436 98.4918 13.3544 98.4918 15.0749C98.4918 18.1609 99.2965 19.7039 100.906 19.7039C101.779 19.7039 102.406 19.2396 102.788 18.3111C103.17 17.3826 103.361 15.9625 103.361 14.0508C103.361 12.5488 103.156 11.4701 102.747 10.8146C102.338 10.1319 101.724 9.79051 100.906 9.79051ZM101.929 34.9016C103.184 34.9016 104.111 34.6012 104.711 34.0004C105.312 33.3996 105.612 32.6486 105.612 31.7474C105.612 30.9281 105.107 30.3136 104.098 29.904C103.116 29.5217 101.561 29.153 99.4329 28.798L97.5916 28.4293C97.237 29.0301 97.0597 29.8221 97.0597 30.8052C97.0597 32.0614 97.4416 33.0582 98.2054 33.7956C98.9692 34.533 100.21 34.9016 101.929 34.9016Z" fill="white"/>
<path d="M124.937 24.9473C126.656 24.9473 128.251 24.4011 129.724 23.3087C129.943 23.5272 130.134 23.8549 130.297 24.2919C130.461 24.7288 130.543 25.1112 130.543 25.4389C130.543 25.9304 130.216 26.5039 129.561 27.1594C128.906 27.7875 127.992 28.3337 126.819 28.798C125.674 29.2622 124.378 29.4943 122.932 29.4943C120.913 29.4943 119.14 29.0574 117.613 28.1835C116.112 27.3096 114.953 26.0397 114.135 24.3738C113.316 22.7079 112.907 20.7416 112.907 18.4749C112.907 16.1536 113.344 14.1191 114.217 12.3713C115.117 10.6235 116.344 9.28529 117.899 8.35676C119.454 7.40093 121.214 6.92301 123.178 6.92301C125.66 6.92301 127.638 7.64672 129.111 9.09412C130.584 10.5415 131.32 12.5488 131.32 15.1159C131.32 16.3175 131.129 17.2733 130.747 17.9834C130.366 18.6661 129.684 19.0075 128.702 19.0075H119.863C120.027 22.9674 121.718 24.9473 124.937 24.9473ZM122.932 9.74955C122.086 9.74955 121.377 10.2275 120.804 11.1833C120.231 12.1118 119.918 13.6821 119.863 15.8942H123.996C124.432 15.8942 124.719 15.744 124.855 15.4436C124.992 15.1432 125.06 14.6789 125.06 14.0508C125.06 12.4395 124.869 11.3198 124.487 10.6917C124.105 10.0636 123.587 9.74955 122.932 9.74955Z" fill="white"/>
<path d="M147.44 6.88205C148.668 6.88205 149.568 7.19611 150.141 7.82423C150.714 8.45235 151 9.3126 151 10.405C151 11.5793 150.686 12.5351 150.059 13.2725C149.459 14.0098 148.64 14.3785 147.604 14.3785C146.704 14.3785 145.967 14.1191 145.394 13.6002C144.849 13.0813 144.576 12.4668 144.576 11.7568C144.576 11.3198 144.617 10.9785 144.699 10.7327C143.717 10.9785 142.885 11.4018 142.203 12.0026V24.2919C142.203 24.9746 142.298 25.4935 142.489 25.8485C142.68 26.2035 143.048 26.4766 143.594 26.6678C144.167 26.8317 145.012 26.9136 146.131 26.9136C146.131 27.4052 146.076 27.8285 145.967 28.1835C145.858 28.5112 145.653 28.8253 145.353 29.1257H134.428C133.801 28.4975 133.487 27.7602 133.487 26.9136C134.278 26.9136 134.837 26.7497 135.165 26.422C135.519 26.067 135.697 25.4798 135.697 24.6606V12.8219C135.697 12.0845 135.492 11.5656 135.083 11.2652C134.701 10.9648 134.005 10.8146 132.996 10.8146V8.97123C133.896 8.45235 135.083 8.00174 136.556 7.6194C138.056 7.20976 139.216 7.00494 140.034 7.00494C140.689 7.00494 141.152 7.23707 141.425 7.70133C141.698 8.1656 141.834 9.09412 141.834 10.4869C142.325 9.55838 143.103 8.72544 144.167 7.98808C145.231 7.25073 146.322 6.88205 147.44 6.88205Z" fill="white"/>
</g>
</svg>
